<svg width="17" height="17" viewBox="0 0 17 17" fill="none" xmlns="http://www.w3.org/2000/svg">
<g id="lets-icons:check-fill">
<path id="Vector" fill-rule="evenodd" clip-rule="evenodd" d="M8.72633 14.5096C9.5185 14.5096 10.3029 14.3536 11.0348 14.0504C11.7666 13.7473 12.4316 13.303 12.9918 12.7428C13.5519 12.1827 13.9963 11.5177 14.2994 10.7858C14.6025 10.0539 14.7586 9.26954 14.7586 8.47737C14.7586 7.68521 14.6025 6.9008 14.2994 6.16893C13.9963 5.43707 13.5519 4.77208 12.9918 4.21193C12.4316 3.65179 11.7666 3.20746 11.0348 2.90431C10.3029 2.60116 9.5185 2.44513 8.72633 2.44513C7.12648 2.44513 5.59216 3.08067 4.46089 4.21193C3.32963 5.3432 2.69409 6.87752 2.69409 8.47737C2.69409 10.0772 3.32963 11.6115 4.46089 12.7428C5.59216 13.8741 7.12648 14.5096 8.72633 14.5096ZM8.57084 10.9171L11.9221 6.89558L10.8926 6.03767L8.01051 9.49548L6.5192 8.00351L5.57147 8.95124L7.58222 10.962L8.10099 11.4808L8.57084 10.9171Z" fill="#1EDC18"/>
</g>
</svg>
