<svg width="210" height="66" viewBox="0 0 210 66" fill="none" xmlns="http://www.w3.org/2000/svg">
<path d="M0 26.389H72.1556V49.3766H0V26.389Z" fill="#D9D9D9"/>
<path d="M56.9415 44.4385C53.3169 44.4385 51.0012 41.9014 51.0012 38.2915C51.0012 34.7156 53.3169 32.1785 56.9415 32.1785C60.566 32.1785 62.8649 34.7156 62.8649 38.2915C62.8649 41.9014 60.566 44.4385 56.9415 44.4385ZM56.9415 43.2295C59.6935 43.2295 61.489 41.3905 61.489 38.3255C61.489 35.2775 59.6935 33.3874 56.9415 33.3874C54.1895 33.3874 52.3772 35.2775 52.3772 38.3255C52.3772 41.3905 54.1895 43.2295 56.9415 43.2295Z" fill="black"/>
<path d="M42.7144 44.2682H39.157V32.3488H42.7144C45.6174 32.3488 49.3594 33.6599 49.3594 38.2915C49.3594 43.1103 45.6174 44.2682 42.7144 44.2682ZM40.4994 33.5748V43.0422H42.8654C44.8959 43.0422 47.9835 42.276 47.9835 38.3596C47.9835 34.4262 44.8959 33.5748 42.8654 33.5748H40.4994Z" fill="black"/>
<path d="M30.1644 32.3488H31.5069V44.2682H30.1644V32.3488Z" fill="black"/>
<path d="M27.4803 32.3488V33.5748H20.8185V37.5593H26.7755V38.7853H20.8185V43.0422H27.4803V44.2682H20.3151C19.8285 44.2682 19.4761 43.9107 19.4761 43.4169V32.3488H27.4803Z" fill="black"/>
<path d="M11.4943 32.3488V43.0252H17.3003V44.2682H10.9909C10.4371 44.2682 10.1519 43.9788 10.1519 43.4169V32.3488H11.4943Z" fill="black"/>
<path d="M187.917 55.1235C187.917 49.6703 191.44 44.2469 198.518 44.2469C205.565 44.2469 209.119 49.6703 209.119 55.1235C209.119 60.5468 205.565 66 198.518 66C191.44 66 187.917 60.5468 187.917 55.1235ZM198.518 44.9323C193.144 44.9323 190.442 50.0279 190.442 55.1235C190.442 60.2191 193.144 65.3146 198.518 65.3146C203.891 65.3146 206.564 60.2191 206.564 55.1235C206.564 50.0279 203.891 44.9323 198.518 44.9323Z" fill="white"/>
<path d="M171.073 44.694H177.768C182.672 44.694 185.109 47.4652 185.109 50.2663C185.109 52.68 183.289 55.0937 179.647 55.6897C185.491 57.7458 183.289 65.0167 187.605 65.0465L187.635 65.5531C179.119 65.5531 182.613 55.8685 176.241 55.8387H174.303V62.901C174.303 64.2717 174.919 65.2551 175.184 65.3147V65.5531H171.073V65.3147C171.337 65.2551 171.953 64.2717 171.953 62.901V47.3461C171.953 45.9753 171.337 44.992 171.073 44.9324V44.694ZM177.004 45.3793H175.184C174.303 45.3793 174.303 45.9753 174.303 47.3461V55.1533H177.004C180.734 55.1533 182.584 52.7098 182.584 50.2663C182.584 47.8228 180.734 45.3793 177.004 45.3793Z" fill="white"/>
<path d="M164.018 44.694H168.129V44.9324C167.865 44.992 167.248 45.9753 167.248 47.3461V62.901C167.248 64.2717 167.865 65.2551 168.129 65.3147V65.5531H164.018V65.3147C164.282 65.2551 164.899 64.2717 164.899 62.901V47.3461C164.899 45.9753 164.282 44.992 164.018 44.9324V44.694Z" fill="white"/>
<path d="M147.471 44.694H160.744V47.3461H160.509C160.451 47.0779 159.775 45.3793 157.984 45.3793H151.582C150.701 45.3793 150.701 45.9753 150.701 47.3461V54.7659H156.105C157.896 54.7659 158.63 53.5144 158.63 53.5144H158.865V56.6731H158.63C158.63 56.6731 157.896 55.4513 156.105 55.4513H150.701V62.901C150.701 64.2717 150.701 64.8677 151.582 64.8677H158.307C160.098 64.8677 160.774 63.1692 160.832 62.901H161.067V65.5531H147.471V65.3147C147.735 65.2551 148.352 64.2717 148.352 62.901V47.3461C148.352 45.9753 147.735 44.992 147.471 44.9324V44.694Z" fill="white"/>
<path d="M127.493 55.1235C127.493 49.6703 131.017 44.2469 138.094 44.2469C140.267 44.2469 142.47 45.0217 144.232 46.3627L142.675 48.538H142.411C142.411 47.048 140.443 44.9323 138.094 44.9323C132.72 44.9323 130.019 50.0279 130.019 55.1235C130.019 60.2191 132.72 65.3146 138.094 65.3146C141.471 65.3146 142.822 63.6757 143.409 62.752H143.468L144.232 63.8843C142.558 65.2848 140.796 66 138.094 66C131.017 66 127.493 60.5468 127.493 55.1235Z" fill="white"/>
<path d="M110.649 44.694H117.345C122.249 44.694 124.686 47.4652 124.686 50.2663C124.686 52.68 122.865 55.0937 119.224 55.6897C125.068 57.7458 122.865 65.0167 127.182 65.0465L127.212 65.5531C118.695 65.5531 122.19 55.8685 115.818 55.8387H113.88V62.901C113.88 64.2717 114.496 65.2551 114.76 65.3147V65.5531H110.649V65.3147C110.914 65.2551 111.53 64.2717 111.53 62.901V47.3461C111.53 45.9753 110.914 44.992 110.649 44.9324V44.694ZM116.581 45.3793H114.76C113.88 45.3793 113.88 45.9753 113.88 47.3461V55.1533H116.581C120.311 55.1533 122.161 52.7098 122.161 50.2663C122.161 47.8228 120.311 45.3793 116.581 45.3793Z" fill="white"/>
<path d="M88.4323 65.5531V65.3147C88.7846 65.2551 89.4307 64.4505 89.9005 63.497L98.1523 44.694H98.8864L106.845 62.8712C107.344 64.0035 108.166 65.2551 108.606 65.3147V65.5531H104.084V65.3147C104.525 65.2551 104.848 64.2717 104.26 62.9308V62.9606L103.174 60.4277C102.263 60.9045 101.471 61.0833 100.736 61.0833C98.6221 61.0833 96.9777 59.5933 94.5109 59.5933C93.8062 59.5933 93.0427 59.7125 92.1911 60.0105L90.8696 63.0202C90.3117 64.3015 90.4291 65.2551 90.8696 65.3147V65.5531H88.4323ZM97.565 47.6738L92.4847 59.2953C93.2776 59.0272 93.953 58.9378 94.599 58.9378C97.0364 58.9378 98.5928 60.3979 100.619 60.3979C101.324 60.3979 102.058 60.2489 102.88 59.8019L97.565 47.6738Z" fill="white"/>
<path d="M78.9504 47.1971V57.1498H81.7695C85.3815 57.1498 87.2022 54.1998 87.2022 51.2497C87.2022 48.3294 85.3815 45.3793 81.7695 45.3793H79.8314C78.9798 45.3793 78.9504 45.9455 78.9504 47.1971ZM75.7202 44.694H82.533C87.349 44.694 89.757 47.9718 89.757 51.2497C89.757 54.5573 87.349 57.8352 82.533 57.8352H78.9504V62.901C78.9504 64.2717 79.5671 65.2551 79.8314 65.3147V65.5531H75.7202V65.3147C75.9845 65.2551 76.6012 64.2717 76.6012 62.901V47.3461C76.6012 45.9753 75.9845 44.992 75.7202 44.9324V44.694Z" fill="white"/>
<path d="M179.711 23.4091C179.711 15.6189 184.746 7.87122 194.856 7.87122C204.924 7.87122 210 15.6189 210 23.4091C210 31.1568 204.924 38.947 194.856 38.947C184.746 38.947 179.711 31.1568 179.711 23.4091ZM194.856 8.85032C187.179 8.85032 183.319 16.1297 183.319 23.4091C183.319 30.6885 187.179 37.9679 194.856 37.9679C202.533 37.9679 206.35 30.6885 206.35 23.4091C206.35 16.1297 202.533 8.85032 194.856 8.85032Z" fill="white"/>
<path d="M173.011 38.3085L169.406 28.8924H157.525L153.961 38.3085H150.151L161.847 7.79473H165.247L176.923 38.3085H173.011ZM168.279 25.5043L164.92 16.2962L163.486 11.7441C163.076 13.4069 162.646 14.9243 162.195 16.2962L158.795 25.5043H168.279ZM166.497 5.44591C165.91 5.44591 165.336 5.3212 164.776 5.07177C164.216 4.80848 163.663 4.53133 163.117 4.24033C162.584 3.93547 162.066 3.65832 161.56 3.40889C161.069 3.1456 160.591 3.01396 160.126 3.01396C159.457 3.01396 158.952 3.22182 158.611 3.63754C158.269 4.0394 158.003 4.65605 157.812 5.48749H155.681C155.845 3.7969 156.323 2.4666 157.115 1.49659C157.907 0.526577 158.966 0.0415719 160.29 0.0415719C160.905 0.0415719 161.499 0.173216 162.072 0.436505C162.66 0.685936 163.219 0.963082 163.752 1.26794C164.285 1.55895 164.797 1.83609 165.288 2.09938C165.78 2.34881 166.244 2.47353 166.681 2.47353C167.337 2.47353 167.828 2.2726 168.156 1.87073C168.497 1.45502 168.771 0.831437 168.975 0H171.085C170.921 1.64902 170.443 2.97239 169.651 3.97011C168.859 4.95398 167.808 5.44591 166.497 5.44591Z" fill="white"/>
<path d="M129.061 8.50977H134.934V8.85032C134.556 8.93546 133.675 10.3403 133.675 12.2985V34.5198C133.675 36.478 133.675 37.3294 134.934 37.3294H144.54C147.099 37.3294 148.064 34.9029 148.148 34.5198H148.484V38.3085H129.061V37.9679C129.438 37.8828 130.319 36.478 130.319 34.5198V12.2985C130.319 10.3403 129.438 8.93546 129.061 8.85032V8.50977Z" fill="white"/>
<path d="M97.322 38.3085V37.9679C97.8254 37.8828 98.7484 36.7334 99.4196 35.3712L111.208 8.50977H112.257L123.625 34.4772C124.338 36.0949 125.513 37.8828 126.142 37.9679V38.3085H119.682V37.9679C120.311 37.8828 120.773 36.478 119.934 34.5624V34.6049L118.381 30.9865C117.081 31.6676 115.948 31.923 114.899 31.923C111.879 31.923 109.53 29.7946 106.006 29.7946C104.999 29.7946 103.908 29.9648 102.692 30.3905L100.804 34.6901C100.007 36.5206 100.175 37.8828 100.804 37.9679V38.3085H97.322ZM110.369 12.7667L103.111 29.3689C104.244 28.9857 105.209 28.858 106.132 28.858C109.614 28.858 111.837 30.9439 114.732 30.9439C115.738 30.9439 116.787 30.7311 117.962 30.0926L110.369 12.7667Z" fill="white"/>
<path d="M84.9334 38.8193C81.0739 38.8193 77.1725 37.457 75.075 34.5623L77.3403 31.0716H77.8857C77.8857 35.4988 81.3676 37.9253 84.9754 37.9253C89.3383 37.9253 93.4495 35.9245 93.4495 32.0507C93.4495 24.303 75.7881 26.6869 75.7881 16.0871C75.7881 10.6808 80.193 7.9563 84.8915 7.9563C88.3314 7.9563 91.8553 9.40367 93.9529 12.341L91.6875 14.6397H91.4358C91.4358 11.3193 87.9119 8.9354 84.8495 8.9354C81.1159 8.9354 77.7598 10.9787 77.7598 14.9803C77.7598 22.7705 95.7148 20.0461 95.7148 31.0716C95.7148 36.0948 90.387 38.8193 84.9334 38.8193Z" fill="white"/>
</svg>
