<svg width="16" height="12" viewBox="0 0 16 12" fill="none" xmlns="http://www.w3.org/2000/svg">
<path id="Vector" fill-rule="evenodd" clip-rule="evenodd" d="M8.0181 0.22168C8.62937 0.22168 9.25636 0.237408 9.86405 0.263146L10.5818 0.297463L11.2689 0.338214L11.9123 0.381825L12.5 0.42758C13.1378 0.476394 13.7379 0.748547 14.1948 1.19616C14.6517 1.64378 14.9361 2.23818 14.998 2.87479L15.0266 3.17864L15.0802 3.82923C15.1302 4.50341 15.1674 5.23836 15.1674 5.94114C15.1674 6.64392 15.1302 7.37887 15.0802 8.05305L15.0266 8.70364C15.0173 8.80802 15.008 8.90882 14.998 9.00749C14.9361 9.64422 14.6516 10.2387 14.1945 10.6863C13.7375 11.134 13.1372 11.406 12.4993 11.4547L11.9131 11.4997L11.2696 11.5441L10.5818 11.5848L9.86405 11.6191C9.24909 11.6459 8.63364 11.6597 8.0181 11.6606C7.40256 11.6597 6.7871 11.6459 6.17214 11.6191L5.45435 11.5848L4.7673 11.5441L4.12386 11.4997L3.53619 11.4547C2.89843 11.4059 2.29832 11.1337 1.84142 10.6861C1.38452 10.2385 1.10011 9.6441 1.03821 9.00749L1.00962 8.70364L0.955996 8.05305C0.901331 7.35037 0.872238 6.64593 0.868774 5.94114C0.868774 5.23836 0.905951 4.50341 0.955996 3.82923L1.00962 3.17864C1.01891 3.07426 1.0282 2.97346 1.03821 2.87479C1.10008 2.23829 1.3844 1.64398 1.84115 1.19638C2.2979 0.748779 2.89784 0.476555 3.53547 0.42758L4.12243 0.381825L4.76587 0.338214L5.45364 0.297463L6.17143 0.263146C6.78663 0.236431 7.40232 0.222606 8.0181 0.22168ZM6.58823 4.20743V7.67485C6.58823 8.00515 6.9457 8.21105 7.23167 8.04662L10.2344 6.31291C10.2997 6.27529 10.354 6.22113 10.3917 6.15586C10.4295 6.09059 10.4493 6.01653 10.4493 5.94114C10.4493 5.86575 10.4295 5.79169 10.3917 5.72642C10.354 5.66115 10.2997 5.60699 10.2344 5.56937L7.23167 3.83638C7.16644 3.79872 7.09245 3.7789 7.01713 3.77891C6.9418 3.77892 6.86781 3.79877 6.80259 3.83645C6.73738 3.87413 6.68323 3.92832 6.6456 3.99357C6.60797 4.05882 6.58819 4.13282 6.58823 4.20814V4.20743Z" fill="#FF1059"/>
</svg>
